<svg width="254" height="254" viewBox="0 0 254 254" fill="none" xmlns="http://www.w3.org/2000/svg">
<path d="M254 6.04043C254 2.71819 251.363 0 248.141 0L199.802 0.22653L127 89.7004L54.2716 0.30204L5.85928 0.07551C2.63668 0.07551 0 2.7182 0 6.11594C0 7.55054 0.512683 8.90964 1.39158 10.0422L96.6782 127.075L1.39158 244.033C0.506557 245.14 0.0155002 246.525 0 247.96C0 251.282 2.63668 254 5.85928 254L54.2716 253.773L127 164.3L199.728 253.698L248.067 253.924C251.29 253.924 253.927 251.282 253.927 247.884C253.927 246.449 253.414 245.09 252.535 243.958L157.395 127L252.682 9.96671C253.561 8.90964 254 7.47503 254 6.04043Z" fill="#5E3F71"/>
</svg>
