<svg width="154" height="154" viewBox="0 0 154 154" fill="none" xmlns="http://www.w3.org/2000/svg">
<path d="M104.848 59.8165C105.465 59.2419 105.962 58.5514 106.312 57.7846C106.661 57.0177 106.856 56.1896 106.886 55.3473C106.915 54.5051 106.779 53.6653 106.483 52.8759C106.188 52.0865 105.741 51.363 105.166 50.7466C104.591 50.1302 103.901 49.633 103.134 49.2835C102.367 48.9339 101.539 48.7388 100.697 48.7093C99.8547 48.6798 99.0149 48.8165 98.2255 49.1116C97.4361 49.4066 96.7125 49.8543 96.0961 50.429L77.321 67.9336L59.8163 49.152C58.645 47.9524 57.0508 47.2589 55.3746 47.2198C53.6985 47.1807 52.0736 47.7992 50.8477 48.9429C49.6218 50.0866 48.8923 51.6647 48.8152 53.3395C48.738 55.0144 49.3195 56.6528 50.4351 57.9044L67.9398 76.6795L49.1582 94.1842C48.52 94.7531 48.002 95.4437 47.6344 96.2156C47.2669 96.9875 47.0573 97.825 47.018 98.679C46.9787 99.533 47.1104 100.386 47.4055 101.189C47.7005 101.991 48.1529 102.726 48.7361 103.351C49.3193 103.977 50.0215 104.479 50.8015 104.829C51.5816 105.179 52.4236 105.369 53.2783 105.389C54.133 105.409 54.983 105.258 55.7785 104.945C56.574 104.632 57.2988 104.163 57.9105 103.565L76.6857 86.0671L94.1904 104.842C94.7556 105.492 95.4459 106.022 96.2201 106.399C96.9943 106.777 97.8365 106.995 98.6967 107.04C99.5569 107.085 100.417 106.956 101.227 106.662C102.036 106.367 102.778 105.912 103.408 105.325C104.038 104.738 104.543 104.03 104.894 103.243C105.244 102.456 105.433 101.607 105.448 100.745C105.463 99.8843 105.305 99.0288 104.983 98.2301C104.66 97.4313 104.18 96.7057 103.572 96.0964L86.0733 77.3212L104.848 59.8165V59.8165Z" fill="#767676"/>
<path fill-rule="evenodd" clip-rule="evenodd" d="M6.41675 77.0001C6.41675 38.0188 38.0188 6.41675 77.0001 6.41675C115.981 6.41675 147.583 38.0188 147.583 77.0001C147.583 115.981 115.981 147.583 77.0001 147.583C38.0188 147.583 6.41675 115.981 6.41675 77.0001ZM77.0001 134.75C69.4162 134.75 61.9067 133.256 54.9001 130.354C47.8936 127.452 41.5272 123.198 36.1647 117.835C30.8021 112.473 26.5482 106.107 23.646 99.1C20.7438 92.0935 19.2501 84.5839 19.2501 77.0001C19.2501 69.4162 20.7438 61.9067 23.646 54.9001C26.5482 47.8936 30.8021 41.5272 36.1647 36.1647C41.5272 30.8021 47.8936 26.5482 54.9001 23.646C61.9067 20.7438 69.4162 19.2501 77.0001 19.2501C92.3163 19.2501 107.005 25.3344 117.835 36.1647C128.666 46.9949 134.75 61.6838 134.75 77.0001C134.75 92.3163 128.666 107.005 117.835 117.835C107.005 128.666 92.3163 134.75 77.0001 134.75Z" fill="#767676"/>
</svg>
