<svg width="250" height="250" viewBox="0 0 250 250" fill="none" xmlns="http://www.w3.org/2000/svg">
<g clip-path="url(#clip0)">
<path d="M247.342 101.594L128.838 14.8276C126.553 13.1548 123.448 13.1548 121.164 14.8276L2.65897 101.594C-0.235557 103.713 -0.864464 107.778 1.25517 110.672C3.37479 113.567 7.43974 114.195 10.3338 112.076L125 28.1191L239.667 112.076C240.823 112.923 242.167 113.331 243.499 113.331C245.499 113.331 247.472 112.41 248.745 110.672C250.865 107.778 250.236 103.713 247.342 101.594Z" fill="#898989"/>
<path d="M215.939 113.546C212.353 113.546 209.444 116.454 209.444 120.042V223.435H157.48V166.996C157.48 149.086 142.909 134.516 125 134.516C107.09 134.516 92.519 149.087 92.519 166.996V223.435H40.5547V120.042C40.5547 116.455 37.646 113.547 34.0591 113.547C30.4722 113.547 27.5635 116.455 27.5635 120.042V229.932C27.5635 233.519 30.4722 236.427 34.0591 236.427H99.0146C102.431 236.427 105.226 233.788 105.485 230.437C105.5 230.286 105.51 230.12 105.51 229.932V166.997C105.51 156.25 114.253 147.508 125 147.508C135.746 147.508 144.489 156.251 144.489 166.997V229.932C144.489 230.119 144.499 230.282 144.514 230.432C144.77 233.785 147.566 236.427 150.984 236.427H215.94C219.527 236.427 222.436 233.519 222.436 229.932V120.042C222.435 116.454 219.527 113.546 215.939 113.546Z" fill="#767676"/>
</g>
<defs>
<clipPath id="clip0">
<rect width="250" height="250" fill="white"/>
</clipPath>
</defs>
</svg>
