<svg width="225" height="225" viewBox="0 0 225 225" fill="none" xmlns="http://www.w3.org/2000/svg">
<path d="M87.0941 144.937L123.469 108.562L87.0941 72.1873C86.2262 71.3193 85.5377 70.2889 85.068 69.1549C84.5982 68.0208 84.3564 66.8054 84.3564 65.5779C84.3564 64.3504 84.5982 63.135 85.068 62.0009C85.5377 60.8669 86.2262 59.8365 87.0941 58.9685C87.9621 58.1006 88.9925 57.4121 90.1265 56.9423C91.2606 56.4726 92.476 56.2308 93.7035 56.2308C94.931 56.2308 96.1464 56.4726 97.2805 56.9423C98.4145 57.4121 99.4449 58.1006 100.313 58.9685L143.344 102C147 105.656 147 111.562 143.344 115.219L100.313 158.25C99.4456 159.119 98.4154 159.808 97.2812 160.279C96.1471 160.749 94.9313 160.991 93.7035 160.991C92.4757 160.991 91.2599 160.749 90.1258 160.279C88.9917 159.808 87.9615 159.119 87.0941 158.25C83.5316 154.593 83.4379 148.594 87.0941 144.937V144.937Z" fill="white"/>
</svg>
