<svg width="70" height="158" viewBox="0 0 70 158" fill="none" xmlns="http://www.w3.org/2000/svg">
<path d="M66.8955 133.786L25.6469 78.9259L46.2712 51.4957L66.8955 24.0654C67.8797 22.7563 68.6605 21.2023 69.1932 19.4919C69.7258 17.7816 70 15.9484 70 14.0972C70 12.2459 69.7258 10.4128 69.1932 8.70242C68.6605 6.99207 67.8797 5.43801 66.8955 4.12897C65.9113 2.81992 64.7428 1.78153 63.4568 1.07308C62.1708 0.364631 60.7925 -2.7586e-08 59.4006 0C58.0087 2.75861e-08 56.6303 0.364631 55.3444 1.07308C54.0584 1.78153 52.8899 2.81992 51.9057 4.12897L27.5073 36.5787L3.109 69.0284C2.12346 70.3365 1.34157 71.8902 0.808086 73.6007C0.274603 75.3112 0 77.1448 0 78.9966C0 80.8484 0.274603 82.682 0.808086 84.3925C1.34157 86.103 2.12346 87.6567 3.109 88.9648L51.9057 153.864C56.0518 159.379 62.7494 159.379 66.8955 153.864C70.9353 148.35 71.0416 139.301 66.8955 133.786Z" fill="white"/>
</svg>
