<svg width="254" height="254" viewBox="0 0 254 254" fill="none" xmlns="http://www.w3.org/2000/svg">
<g clip-path="url(#clip0)">
<path d="M198.437 254H55.5625C42.4392 254 31.75 243.321 31.75 230.187V119.062C31.75 105.929 42.4392 95.25 55.5625 95.25H198.437C211.561 95.25 222.25 105.929 222.25 119.062V230.187C222.25 243.321 211.561 254 198.437 254ZM55.5625 111.125C51.1916 111.125 47.625 114.681 47.625 119.062V230.187C47.625 234.569 51.1916 238.125 55.5625 238.125H198.437C202.808 238.125 206.375 234.569 206.375 230.187V119.062C206.375 114.681 202.808 111.125 198.437 111.125H55.5625Z" fill="#4C4C4C"/>
<path d="M182.562 111.125C178.181 111.125 174.625 107.569 174.625 103.187V63.5C174.625 37.2427 153.257 15.875 127 15.875C100.743 15.875 79.375 37.2427 79.375 63.5V103.187C79.375 107.569 75.819 111.125 71.4375 111.125C67.056 111.125 63.5 107.569 63.5 103.187V63.5C63.5 28.4797 91.9797 0 127 0C162.02 0 190.5 28.4797 190.5 63.5V103.187C190.5 107.569 186.944 111.125 182.562 111.125Z" fill="#4C4C4C"/>
<path d="M127 179.917C115.327 179.917 105.833 170.423 105.833 158.75C105.833 147.077 115.327 137.583 127 137.583C138.674 137.583 148.167 147.077 148.167 158.75C148.167 170.423 138.674 179.917 127 179.917ZM127 153.458C124.09 153.458 121.709 155.829 121.709 158.75C121.709 161.671 124.09 164.042 127 164.042C129.911 164.042 132.292 161.671 132.292 158.75C132.292 155.829 129.911 153.458 127 153.458Z" fill="#4C4C4C"/>
<path d="M127 211.667C122.618 211.667 119.062 208.111 119.062 203.729V174.625C119.062 170.243 122.618 166.688 127 166.688C131.381 166.688 134.937 170.243 134.937 174.625V203.729C134.937 208.111 131.381 211.667 127 211.667Z" fill="#4C4C4C"/>
</g>
<defs>
<clipPath id="clip0">
<rect width="254" height="254" fill="white"/>
</clipPath>
</defs>
</svg>
