<svg xmlns="http://www.w3.org/2000/svg" viewBox="0 0 64 64" aria-labelledby="title"
aria-describedby="desc" role="img" xmlns:xlink="http://www.w3.org/1999/xlink">
  <title>Facebook</title>
  <desc>A color styled icon from Orion Icon Library.</desc>
  <path data-name="layer1"
  d="M58 0H6a6.018 6.018 0 0 0-6 6v52a6.018 6.018 0 0 0 6 6h28V38h-7V28h7v-5c.162-5.606 1.612-10.594 11.119-11H53v9.912h-6.662A3.15 3.15 0 0 0 43 25v3h10l-1.706 10H43v26h15a6.018 6.018 0 0 0 6-6V6a6.018 6.018 0 0 0-6-6z"
  fill="#475993"></path>
</svg>