<?xml version="1.0" encoding="utf-8"?>
<!-- Generator: Adobe Illustrator 24.1.1, SVG Export Plug-In . SVG Version: 6.00 Build 0)  -->
<svg version="1.1" xmlns="http://www.w3.org/2000/svg" xmlns:xlink="http://www.w3.org/1999/xlink" x="0px" y="0px"
	 viewBox="0 0 64 64" style="enable-background:new 0 0 64 64;" xml:space="preserve">
<style type="text/css">
	.st0{display:none;}
	.st1{display:inline;fill:#475993;}
	.st2{fill:#FFFFFF;}
	.st3{fill:#3f2551}
</style>
<g id="Capa_1" class="st0">
	<desc>A color styled icon from Orion Icon Library.</desc>
	<path class="st1" d="M58,0H6C2.7,0,0,2.7,0,6v52c0,3.3,2.7,6,6,6h28V38h-7V28h7v-5c0.2-5.6,1.6-10.6,11.1-11H53v9.9h-6.7
		c-1.7-0.1-3.2,1.2-3.3,3c0,0,0,0.1,0,0.1v3h10l-1.7,10H43v26h15c3.3,0,6-2.7,6-6V6C64,2.7,61.3,0,58,0z"/>
</g>
<g id="Capa_2">
	<g>
		<path class="st2" d="M25.5,65c0-0.3-0.1-0.6-0.1-0.9c0-9.2,0-18.4,0-27.6c0-0.7-0.2-0.8-0.8-0.8c-2.9,0-5.8,0-8.8,0
			c-0.5,0-0.7-0.1-0.7-0.7c0-3.3,0-6.6,0-9.9c0-0.6,0.2-0.7,0.7-0.7c2.9,0,5.8,0,8.8,0c0.6,0,0.8-0.1,0.8-0.8c0-3.1-0.1-6.2,0.1-9.3
			c0.1-3.3,1.2-6.3,3.4-8.9c2.2-2.5,5-3.9,8.3-4.3c3.7-0.5,7.4-0.1,11.1,0.2c0.5,0,0.7,0.2,0.7,0.8c0,3,0,5.9,0,8.9
			c0,0.6-0.2,0.7-0.7,0.7c-2,0-4,0-5.9,0c-0.6,0-1.3,0.1-1.9,0.2c-1.9,0.4-2.9,1.5-3.1,3.4c-0.3,2.9-0.1,5.7-0.1,8.6
			c0,0.5,0.3,0.4,0.6,0.4c3.3,0,6.6,0,9.9,0c0.7,0,0.8,0.1,0.7,0.8c-0.5,3.3-0.9,6.6-1.3,9.9c-0.1,0.5-0.2,0.6-0.7,0.6
			c-2.8,0-5.6,0-8.4,0c-0.6,0-0.8,0.1-0.8,0.8c0,9.2,0,18.5,0,27.7c0,0.3,0,0.6-0.1,0.9C33.2,65,29.3,65,25.5,65z"/>
	</g>
</g>
</svg>
