<?xml version="1.0" encoding="utf-8"?>
<!-- Generator: Adobe Illustrator 24.1.1, SVG Export Plug-In . SVG Version: 6.00 Build 0)  -->
<svg version="1.1" id="Capa_1" xmlns="http://www.w3.org/2000/svg" xmlns:xlink="http://www.w3.org/1999/xlink" x="0px" y="0px"
	 viewBox="0 0 64 64" style="enable-background:new 0 0 64 64;" xml:space="preserve">
<style type="text/css">
	.st0{fill:#FFFFFF;}
</style>
<desc>A color styled icon from Orion Icon Library.</desc>
<path class="st0" d="M52.9,14.9c0,2.1-1.7,3.8-3.8,3.8s-3.8-1.7-3.8-3.8s1.7-3.8,3.8-3.8S52.9,12.8,52.9,14.9L52.9,14.9z M32,42.7
	c-5.9,0-10.7-4.8-10.7-10.7S26.1,21.3,32,21.3c5.9,0,10.7,4.8,10.7,10.7C42.7,37.9,37.9,42.7,32,42.7C32,42.7,32,42.7,32,42.7
	L32,42.7z M32,15.6c-9.1,0-16.4,7.4-16.4,16.4S22.9,48.4,32,48.4S48.4,41.1,48.4,32c0,0,0,0,0,0C48.4,22.9,41.1,15.6,32,15.6
	C32,15.6,32,15.6,32,15.6z M32,5.8c8.5,0,9.6,0,12.9,0.2c2,0,4,0.4,5.9,1.1c1.4,0.5,2.6,1.3,3.7,2.4c1.1,1,1.9,2.3,2.4,3.7
	C57.7,15,58,17,58,19.1c0.2,3.4,0.2,4.4,0.2,12.9s0,9.6-0.2,12.9c0,2-0.4,4-1.1,5.9c-1.1,2.8-3.3,5-6.1,6.1C49,57.7,47,58,44.9,58
	c-3.4,0.2-4.4,0.2-12.9,0.2s-9.6,0-12.9-0.2c-2,0-4-0.4-5.9-1.1c-1.4-0.5-2.6-1.3-3.7-2.4c-1.1-1-1.9-2.3-2.4-3.7
	C6.4,49,6,47,6,44.9C5.8,41.6,5.8,40.5,5.8,32s0-9.6,0.2-12.9c0-2,0.4-4,1.1-5.9c0.5-1.4,1.3-2.6,2.4-3.7c1-1.1,2.3-1.9,3.7-2.4
	C15,6.3,17,6,19.1,6C22.4,5.8,23.5,5.8,32,5.8L32,5.8z M32,0c-8.7,0-9.8,0-13.2,0.2c-2.7,0.1-5.3,0.6-7.8,1.5C8.9,2.5,7,3.7,5.4,5.4
	C3.7,7,2.5,8.9,1.7,11c-0.9,2.5-1.4,5.1-1.5,7.8C0,22.2,0,23.3,0,32s0,9.8,0.2,13.2c0.1,2.7,0.6,5.3,1.5,7.8
	c0.8,2.1,2.1,4.1,3.7,5.7c1.6,1.6,3.5,2.9,5.7,3.7c2.5,0.9,5.1,1.4,7.8,1.5C22.2,64,23.3,64,32,64s9.8,0,13.2-0.2
	c2.7-0.1,5.3-0.6,7.8-1.5c4.3-1.7,7.7-5.1,9.4-9.4c0.9-2.5,1.4-5.1,1.5-7.8C64,41.8,64,40.7,64,32s0-9.8-0.2-13.2
	c-0.1-2.7-0.6-5.3-1.5-7.8c-0.8-2.1-2.1-4.1-3.7-5.7C57,3.7,55.1,2.5,53,1.7c-2.5-0.9-5.1-1.4-7.8-1.5C41.8,0,40.7,0,32,0z"/>
</svg>
