<svg width="160" height="120" viewBox="0 0 160 120" fill="none" xmlns="http://www.w3.org/2000/svg">
<path d="M86.2834 116.568L158.036 12.5537C158.863 11.3533 159.348 9.94862 159.437 8.49166C159.526 7.0347 159.217 5.58102 158.542 4.28801C157.867 2.99501 156.852 1.91197 155.608 1.15614C154.363 0.400306 152.937 0.000498612 151.482 6.05169e-06L7.97775 1.23245e-05C6.52259 -0.000955305 5.09492 0.397785 3.84946 1.15303C2.604 1.90828 1.58826 2.99121 0.912318 4.28448C0.236377 5.57775 -0.0739831 7.03201 0.0148755 8.48967C0.103734 9.94732 0.588422 11.3528 1.41641 12.5537L73.1687 116.568C73.9056 117.627 74.8866 118.493 76.0282 119.09C77.1699 119.688 78.4384 120 79.726 120C81.0136 120 82.2822 119.688 83.4238 119.09C84.5655 118.493 85.5465 117.627 86.2834 116.568V116.568Z" fill="#767676"/>
</svg>
