<svg width="254" height="256" viewBox="0 0 254 256" fill="none" xmlns="http://www.w3.org/2000/svg">
<path d="M95.25 190.5C76.9648 190.5 62.0889 205.059 62.0889 222.956C62.0889 240.852 76.9648 255.411 95.25 255.411C113.535 255.411 128.411 240.852 128.411 222.956C128.411 205.059 113.535 190.5 95.25 190.5ZM95.25 235.938C87.9346 235.938 81.9857 230.115 81.9857 222.956C81.9857 215.796 87.9346 209.974 95.25 209.974C102.562 209.974 108.514 215.796 108.514 222.956C108.514 230.115 102.565 235.938 95.25 235.938Z" fill="#262626"/>
<path d="M194.028 190.5C175.743 190.5 160.867 205.059 160.867 222.956C160.867 240.852 175.743 255.411 194.028 255.411C212.313 255.411 227.189 240.852 227.189 222.956C227.189 205.059 212.313 190.5 194.028 190.5ZM194.028 235.938C186.712 235.938 180.764 230.115 180.764 222.956C180.764 215.796 186.712 209.974 194.028 209.974C201.343 209.974 207.292 215.796 207.292 222.956C207.292 230.115 201.343 235.938 194.028 235.938Z" fill="#262626"/>
<path d="M251.826 62.9867C249.926 60.6777 247.046 59.3334 243.999 59.3334H68.9019L59.8119 14.892C59.0153 10.9998 55.8421 7.97206 51.8053 7.25627L11.8056 0.16221C6.3627 -0.808472 1.16262 2.6777 0.165915 7.93365C-0.830789 13.1896 2.7657 18.2296 8.19936 19.1938L41.5124 25.1012L70.8587 168.592C71.7852 173.123 75.8953 176.389 80.6684 176.389H220.667C225.324 176.389 229.36 173.284 230.41 168.888L253.743 71.1836C254.43 68.3105 253.723 65.2922 251.826 62.9867ZM212.713 157.042H88.8813L72.8583 78.6842H231.423L212.713 157.042Z" fill="#262626"/>
</svg>