<svg width="150" height="157" viewBox="0 0 150 157" fill="none" xmlns="http://www.w3.org/2000/svg">
<path d="M45.3125 14.0745H43.75C44.6094 14.0745 45.3125 13.3707 45.3125 12.5106V14.0745H104.688V12.5106C104.688 13.3707 105.391 14.0745 106.25 14.0745H104.688V28.1489H118.75V12.5106C118.75 5.61024 113.145 0 106.25 0H43.75C36.8555 0 31.25 5.61024 31.25 12.5106V28.1489H45.3125V14.0745ZM143.75 28.1489H6.25C2.79297 28.1489 0 30.9443 0 34.4043V40.6596C0 41.5197 0.703125 42.2234 1.5625 42.2234H13.3594L18.1836 144.459C18.4961 151.125 24.0039 156.383 30.6641 156.383H119.336C126.016 156.383 131.504 151.144 131.816 144.459L136.641 42.2234H148.438C149.297 42.2234 150 41.5197 150 40.6596V34.4043C150 30.9443 147.207 28.1489 143.75 28.1489ZM117.832 142.309H32.168L27.4414 42.2234H122.559L117.832 142.309Z" fill="#F72727"/>
</svg>
