<svg width="123" height="123" viewBox="0 0 123 123" fill="none" xmlns="http://www.w3.org/2000/svg">
<path d="M55.2577 13.6826H13.5109C10.3475 13.6826 7.31365 14.9392 5.07678 17.1761C2.83991 19.413 1.58325 22.4468 1.58325 25.6102V109.104C1.58325 112.267 2.83991 115.301 5.07678 117.538C7.31365 119.775 10.3475 121.031 13.5109 121.031H97.0044C100.168 121.031 103.202 119.775 105.439 117.538C107.675 115.301 108.932 112.267 108.932 109.104V67.357" stroke="#4B9628" stroke-width="2" stroke-linecap="round" stroke-linejoin="round"/>
<path d="M99.9864 4.73669C102.359 2.36414 105.577 1.03125 108.932 1.03125C112.287 1.03125 115.505 2.36414 117.878 4.73669C120.25 7.10925 121.583 10.3271 121.583 13.6824C121.583 17.0377 120.25 20.2556 117.878 22.6282L61.2215 79.2845L37.3662 85.2483L43.33 61.393L99.9864 4.73669Z" stroke="#4B9628" stroke-width="2" stroke-linecap="round" stroke-linejoin="round"/>
</svg>
