<svg width="170" height="212" viewBox="0 0 170 212" fill="none" xmlns="http://www.w3.org/2000/svg">
<path d="M148.5 42.5H127.333C127.333 19.1108 108.389 0.166626 85.0002 0.166626C61.611 0.166626 42.6668 19.1108 42.6668 42.5H21.5002C9.85849 42.5 0.333496 52.025 0.333496 63.6666V190.667C0.333496 202.308 9.85849 211.833 21.5002 211.833H148.5C160.142 211.833 169.667 202.308 169.667 190.667V63.6666C169.667 52.025 160.142 42.5 148.5 42.5ZM85.0002 21.3333C96.6418 21.3333 106.167 30.8583 106.167 42.5H63.8335C63.8335 30.8583 73.3585 21.3333 85.0002 21.3333ZM148.5 190.667H21.5002V63.6666H42.6668V84.8333C42.6668 90.6541 47.4293 95.4166 53.2502 95.4166C59.071 95.4166 63.8335 90.6541 63.8335 84.8333V63.6666H106.167V84.8333C106.167 90.6541 110.929 95.4166 116.75 95.4166C122.571 95.4166 127.333 90.6541 127.333 84.8333V63.6666H148.5V190.667Z" fill="black"/>
</svg>
