<svg width="254" height="254" viewBox="0 0 254 254" fill="none" xmlns="http://www.w3.org/2000/svg">
<path d="M186.411 163.852C201.783 142.918 208.667 116.964 205.688 91.182C202.709 65.3998 190.085 41.691 170.343 24.7989C150.601 7.90681 125.196 -0.922848 99.2108 0.0764286C73.2258 1.07571 48.577 11.8302 30.1957 30.1884C11.8145 48.5466 1.05642 73.1545 0.0737609 99.0891C-0.908894 125.024 7.95636 150.372 24.8959 170.063C41.8355 189.755 65.6001 202.336 91.4352 205.291C117.27 208.246 143.271 201.357 164.235 186.001H164.219C164.695 186.635 165.203 187.237 165.775 187.823L226.891 248.819C229.868 251.792 233.906 253.463 238.117 253.464C242.328 253.466 246.367 251.798 249.346 248.827C252.324 245.856 253.999 241.826 254 237.623C254.001 233.421 252.33 229.39 249.354 226.417L188.237 165.421C187.67 164.847 187.059 164.318 186.411 163.836V163.852ZM190.507 102.951C190.507 114.394 188.249 125.725 183.861 136.297C179.473 146.869 173.042 156.475 164.935 164.566C156.827 172.658 147.203 179.076 136.61 183.455C126.017 187.835 114.663 190.088 103.198 190.088C91.7323 190.088 80.3789 187.835 69.7861 183.455C59.1932 179.076 49.5683 172.658 41.4609 164.566C33.3535 156.475 26.9224 146.869 22.5347 136.297C18.147 125.725 15.8887 114.394 15.8887 102.951C15.8887 79.8408 25.0873 57.6771 41.4609 41.3357C57.8346 24.9943 80.042 15.8138 103.198 15.8138C126.354 15.8138 148.561 24.9943 164.935 41.3357C181.308 57.6771 190.507 79.8408 190.507 102.951V102.951Z" fill="#5E3F71" fill-opacity="0.8"/>
</svg>
